<svg width="22" height="22" viewBox="0 0 22 22" fill="none" xmlns="http://www.w3.org/2000/svg">
<path d="M10.8791 2.41757C6.20599 2.41757 2.4176 6.20596 2.4176 10.8791C2.4176 15.5523 6.20599 19.3406 10.8791 19.3406C15.5523 19.3406 19.3407 15.5523 19.3407 10.8791C19.3407 6.20596 15.5523 2.41757 10.8791 2.41757ZM15.6314 10.6147C15.5949 9.13868 15.2575 7.73829 14.676 6.47197C15.3772 6.20173 16.0428 5.8593 16.6631 5.45288C17.9387 6.81202 18.7399 8.61962 18.8055 10.6147H15.6314ZM11.2316 18.8028C11.2025 18.8041 11.1729 18.8041 11.1436 18.8052V15.648C12.0225 15.671 12.8747 15.8016 13.6833 16.0367C13.0432 17.1039 12.2089 18.0407 11.2316 18.8028ZM14.1974 16.2049C14.8011 16.4167 15.3772 16.6853 15.9222 17.0029C14.8669 17.8728 13.5823 18.4739 12.1732 18.7052C12.9686 17.9818 13.6514 17.1385 14.1974 16.2049ZM8.07467 16.0367C8.88354 15.8013 9.73578 15.671 10.6147 15.648V18.8049C10.5854 18.8039 10.5558 18.8039 10.5267 18.8025C9.54909 18.0407 8.7151 17.1039 8.07467 16.0367ZM9.58479 18.705C8.17568 18.4739 6.89111 17.8728 5.8358 17.0026C6.38104 16.6853 6.95695 16.4164 7.56063 16.2049C8.10666 17.1385 8.78967 17.9818 9.58479 18.705ZM2.95306 10.6147C3.01864 8.61962 3.81957 6.81202 5.09542 5.45288C5.71575 5.85904 6.38104 6.20147 7.08255 6.47197C6.50082 7.73829 6.16342 9.13868 6.12693 10.6147H2.95306ZM13.9385 6.17132C13.054 6.45399 12.1156 6.61291 11.1436 6.63829V2.95303C11.1729 2.95409 11.2025 2.95409 11.2316 2.95541C12.3443 3.82272 13.2714 4.91716 13.9385 6.17132ZM12.1735 3.05325C13.7452 3.31132 15.1609 4.03055 16.2776 5.06868C15.7022 5.43649 15.0888 5.74825 14.4414 5.99389C13.8613 4.88358 13.0921 3.88829 12.1735 3.05325ZM10.6147 2.95303V6.63829C9.64243 6.61291 8.704 6.45425 7.81977 6.17132C8.48691 4.91716 9.41397 3.82272 10.5267 2.95541C10.5558 2.95409 10.5854 2.95409 10.6147 2.95303ZM7.3171 5.99389C6.66979 5.74825 6.05606 5.43649 5.48094 5.06868C6.5976 4.03055 8.01306 3.31132 9.58505 3.05325C8.66618 3.88829 7.89698 4.88358 7.3171 5.99389ZM7.58231 6.65072C8.54005 6.96512 9.55808 7.14599 10.6147 7.17216V10.6147H6.65657C6.69332 9.20108 7.01936 7.86046 7.58231 6.65072ZM10.6147 11.1435V15.1194C9.64058 15.1437 8.69897 15.2952 7.80787 15.566C7.10635 14.2405 6.69808 12.7377 6.65657 11.1435H10.6147ZM11.1436 15.1194V11.1435H15.1017C15.0605 12.7377 14.6519 14.2405 13.9504 15.5663C13.0593 15.2952 12.1177 15.1437 11.1436 15.1194ZM11.1436 10.6147V7.1719C12.2002 7.14572 13.2182 6.96512 14.176 6.65046C14.7389 7.86019 15.065 9.20108 15.1017 10.6144L11.1436 10.6147ZM2.95306 11.1435H6.12693C6.16765 12.797 6.58703 14.3552 7.30282 15.7363C6.64282 15.974 6.01481 16.2768 5.42304 16.6343C3.9584 15.2455 3.02419 13.3044 2.95306 11.1435ZM16.3352 16.6345C15.7435 16.2768 15.1155 15.9743 14.4555 15.7366C15.1713 14.3552 15.5906 12.7972 15.6314 11.1438H18.8052C18.7341 13.3044 17.7999 15.2455 16.3352 16.6345Z" fill="#333333"/>
<path d="M21.2696 4.87138L20.088 1.88955C20.0694 1.84426 20.038 1.80541 19.9977 1.77775C19.9575 1.7501 19.91 1.73484 19.8612 1.73387H19.6225C19.5737 1.73484 19.5262 1.7501 19.4859 1.77775C19.4457 1.80541 19.4143 1.84426 19.3957 1.88955L18.8228 3.33855C18.5759 3.2009 18.3507 3.02738 18.1544 2.82361C18.5602 2.34461 18.8586 1.76979 18.8944 1.25486H19.1331C19.1921 1.25594 19.2496 1.23612 19.2954 1.19888C19.3413 1.16165 19.3726 1.10938 19.3838 1.05128C19.389 1.01695 19.3867 0.981906 19.377 0.948564C19.3674 0.915221 19.3506 0.884382 19.3279 0.858182C19.3052 0.831983 19.2771 0.81105 19.2455 0.796833C19.214 0.782617 19.1797 0.775458 19.1451 0.775851H18.1306V0.428569C18.1317 0.369398 18.1119 0.311741 18.0748 0.265743C18.0377 0.219744 17.9856 0.188352 17.9277 0.17709C17.8935 0.171879 17.8585 0.174195 17.8253 0.183875C17.7921 0.193555 17.7613 0.210368 17.7352 0.233151C17.7091 0.255933 17.6882 0.284139 17.6741 0.315814C17.6599 0.347489 17.6528 0.381877 17.6532 0.416594V0.775851H16.7699C16.711 0.774769 16.6535 0.79459 16.6077 0.831827C16.5618 0.869064 16.5305 0.92133 16.5193 0.97943C16.5141 1.01376 16.5164 1.0488 16.5261 1.08215C16.5357 1.11549 16.5525 1.14633 16.5752 1.17253C16.5979 1.19873 16.626 1.21966 16.6576 1.23388C16.6891 1.24809 16.7234 1.25525 16.758 1.25486H18.417C18.3812 1.61412 18.1425 2.0572 17.8322 2.46436C17.6884 2.28011 17.5606 2.08379 17.4503 1.87757C17.4277 1.82849 17.39 1.788 17.3427 1.76212C17.2954 1.73623 17.241 1.72633 17.1877 1.73387C17.1509 1.74078 17.1163 1.75626 17.0866 1.77907C17.0569 1.80187 17.0329 1.83136 17.0167 1.86515C17.0004 1.89894 16.9923 1.9361 16.993 1.97362C16.9937 2.01114 17.0031 2.04797 17.0206 2.08115C17.1598 2.34367 17.3237 2.59228 17.5099 2.82361C17.2697 3.07206 16.9866 3.2749 16.6745 3.42238C16.6224 3.44524 16.5791 3.48445 16.5511 3.53412C16.5231 3.58379 16.512 3.64123 16.5193 3.69781C16.5305 3.75272 16.5605 3.80197 16.6041 3.83698C16.6477 3.87198 16.7022 3.89054 16.758 3.88941L16.8535 3.86546C17.221 3.69891 17.5533 3.46312 17.8322 3.1709C18.0703 3.41459 18.344 3.62052 18.6438 3.78163L18.2141 4.87138C18.1984 4.90752 18.1918 4.947 18.1949 4.98631C18.1981 5.02562 18.2108 5.06355 18.2321 5.09673C18.2533 5.1299 18.2824 5.15729 18.3168 5.17648C18.3511 5.19566 18.3897 5.20604 18.429 5.20668C18.4774 5.20428 18.5242 5.18846 18.5643 5.16098C18.6043 5.1335 18.6359 5.09544 18.6557 5.05101L19.1212 3.88941H20.3625L20.828 5.05101C20.8477 5.09544 20.8794 5.1335 20.9194 5.16098C20.9595 5.18846 21.0063 5.20428 21.0547 5.20668C21.094 5.20604 21.1326 5.19566 21.1669 5.17648C21.2013 5.15729 21.2303 5.1299 21.2516 5.09673C21.2729 5.06355 21.2856 5.02562 21.2888 4.98631C21.2919 4.947 21.2853 4.90752 21.2696 4.87138ZM19.3122 3.4104L19.7418 2.32065L20.1715 3.4104H19.3122Z" fill="#333333"/>
</svg>
